<svg xmlns="http://www.w3.org/2000/svg" width="2480" height="2480">
  <path fill="#FEFEFE" d="M0 0h2480v2480H0V0Z"/>
  <path fill="#2C0150" d="M932 1130c131.844 0 131.844 0 146.188 2.75l2.824.534c23.326 4.629 43.907 16.342 60.988 32.716l2.64 2.414c33.227 31.423 45.402 80.43 46.651 124.785.076 4.06.093 8.116.084 12.176v2.604c-.055 22.44-2.46 44.576-9.375 66.021l-.827 2.593c-12.253 37.646-34.672 71.455-70.587 89.805-8.02 3.995-15.9 7.646-24.649 9.727l-2.064.512C1037.923 1487.848 970.239 1481 932 1481v-351Z"/>
  <path fill="#2B004F" d="M988.444 766.716c19.59 16.17 33.205 35.662 42.556 59.284l1.137 2.738c9.525 24.21 11.447 50.212 11.3 75.95l-.009 3.455c-.066 16.935-.682 33.279-4.428 49.857l-.617 2.937c-7.55 35.38-26.54 71.878-57.346 92.369-22.875 14.567-45.345 20.079-72.268 19.955-2.765-.011-5.528 0-8.292.012-10.021.009-19.601-.434-29.477-2.273l-2.393-.426c-31.396-5.963-56.024-24.336-74.148-50.378-4.295-6.463-7.927-13.295-11.459-20.196l-1.027-1.98c-13.994-27.258-18.16-58.597-18.158-88.845-.002-2.905-.02-5.81-.04-8.714-.141-45.7 13.878-91.318 46.225-124.461l1.977-2.164c42.913-45.836 129.21-45.189 176.467-7.12Z"/>
  <path fill="#2C0150" d="M1699 1127h68v354h-74c-4.248-8.495-8.37-16.867-12.125-25.563a8705.352 8705.352 0 0 0-4.363-9.994c-2.533-5.767-5.116-11.51-7.7-17.255a8435.694 8435.694 0 0 1-15.574-34.905 7322.316 7322.316 0 0 0-11.402-25.58l-1.049-2.338-1.051-2.345c-26.647-59.42-26.647-59.42-37.541-86.1-1.358-3.317-2.728-6.63-4.097-9.943l-2.973-7.227-1.373-3.32c-2.885-7.055-5.434-14.168-7.752-21.43l.168 3.445a2684.597 2684.597 0 0 1 2.773 87.814c.052 3.288.106 6.575.16 9.863.503 30.195.923 60.39.961 90.589l.004 2.462c.017 17.276-.034 34.551-.066 51.827h-69v-353h80c9.276 18.553 9.276 18.553 12.043 24.234l1.001 2.053a6639.86 6639.86 0 0 1 4.26 8.758 1678.12 1678.12 0 0 1 15.53 32.893c4.897 10.6 10.028 21.079 15.166 31.562 7.36 15.023 14.615 30.077 21.544 45.305.968 2.124 1.94 4.244 2.92 6.362 6.661 14.418 12.69 29.022 18.411 43.833l.949 2.444c4.535 11.715 8.517 23.539 12.176 35.556-.08-1.083-.16-2.167-.244-3.283-4.445-60.791-5.074-121.66-5.608-182.584l-.024-2.663c-.134-15.158-.124-30.31-.124-45.47Z"/>
  <path fill="#2C014F" d="M1310 1127h78l3 9 1.36 4.043c3.696 11.003 7.24 22.05 10.74 33.116 1.205 3.803 2.417 7.604 3.629 11.404 2.276 7.14 4.543 14.282 6.771 21.437a2922.534 2922.534 0 0 0 6.063 19.188c2.152 6.749 4.275 13.505 6.343 20.28 1.503 4.854 3.05 9.692 4.594 14.532 2.174 6.812 4.319 13.63 6.406 20.469 1.503 4.853 3.05 9.691 4.594 14.531 2.174 6.812 4.319 13.63 6.406 20.469 1.503 4.853 3.05 9.691 4.594 14.531 2.174 6.812 4.319 13.63 6.406 20.469 1.503 4.853 3.05 9.691 4.594 14.531 2.174 6.812 4.319 13.63 6.406 20.469 1.503 4.853 3.05 9.691 4.594 14.531 2.174 6.812 4.319 13.63 6.406 20.469 1.503 4.853 3.05 9.691 4.594 14.531 2.19 6.865 4.36 13.734 6.457 20.629a753.51 753.51 0 0 0 2.617 8.273l.838 2.613c.55 1.71 1.102 3.42 1.659 5.128l.757 2.365.685 2.114C1499 1478 1499 1478 1499 1481h-76c-4.496-11.241-4.496-11.241-5.71-15.742l-.825-3.01-.84-3.123c-.61-2.22-1.22-4.438-1.832-6.656l-.913-3.313a693.52 693.52 0 0 0-3.943-13.531l-.729-2.425a747.336 747.336 0 0 0-3.845-12.31l-.818-2.549a693.397 693.397 0 0 0-1.541-4.725c-1.8-5.565-2.837-10.78-4.004-16.616h-104l-2 9c-1.042 4.06-2.178 8.09-3.313 12.125l-.943 3.366a381.822 381.822 0 0 1-6.494 20.638c-1.937 5.811-3.454 11.751-5.02 17.67-1.897 7.144-4.05 14.118-6.23 21.201h-75c1.87-7.48 3.75-14.67 6.223-21.926l.924-2.752c.967-2.88 1.941-5.757 2.916-8.634 1.264-3.746 2.525-7.492 3.785-11.239l.995-2.962c2.679-7.996 5.277-16.017 7.856-24.046a5016.983 5016.983 0 0 1 11.473-35.238l.803-2.439 4.93-14.952a60298.6 60298.6 0 0 0 7.743-23.5l.846-2.568c5.21-15.82 10.382-31.65 15.497-47.5 3.853-11.914 3.853-11.914 6.048-17.76 1.67-4.495 3.042-9.043 4.371-13.648 2.238-7.751 4.71-15.401 7.294-23.043 1.314-3.885 2.615-7.775 3.917-11.664l.83-2.48c3.236-9.679 6.395-19.382 9.549-29.086l.796-2.45c6.08-18.7 12.138-37.408 18.204-56.113Z"/>
  <path fill="#2C0150" d="M1514 744h73c15.58 32.2 15.58 32.2 22.93 48.16 4.866 10.524 9.966 20.93 15.07 31.34 6.92 14.117 13.701 28.279 20.262 42.566a664.851 664.851 0 0 0 6.167 13.032c11.274 23.31 20.48 47.327 28.571 71.902.666 2 1.332 4 2 6l-.107-2.036c-2.504-47.575-2.504-47.575-2.688-51.132-.147-2.749-.302-5.497-.463-8.245-.669-11.58-.948-23.134-1.058-34.732l-.064-5.67c-.054-4.979-.104-9.958-.152-14.936-.03-3.074-.062-6.148-.095-9.222-.304-29.011-.478-58.014-.373-87.027h63v324h-69c-4.248-8.495-8.37-16.867-12.125-25.563a8705.352 8705.352 0 0 0-4.363-9.994c-2.533-5.767-5.116-11.51-7.7-17.255a7999.47 7999.47 0 0 1-15.767-35.357c-4.49-10.12-9.019-20.22-13.591-30.303-5.194-11.456-10.292-22.944-15.186-34.53a4328.515 4328.515 0 0 0-4.506-10.6c-5.643-13.246-11.256-26.504-16.78-39.8l-1.579-3.79c-.727-1.743-1.45-3.488-2.173-5.234l-1.237-2.981c-.841-2.197-1.492-4.3-1.993-6.593l.076 2.695c2.039 73.089 3.108 146.188 2.924 219.305h-63V744Z"/>
  <path fill="#2B004F" d="M1091 744h73l13 28a2771.074 2771.074 0 0 0 8.783 18.03c6.593 13.382 13.068 26.803 19.278 40.368a807.019 807.019 0 0 0 9.462 19.825c17.17 34.797 33.613 70.424 44.477 107.777l-.152-2.195c-2.72-39.72-4.183-79.32-4.449-119.138-.032-4.562-.072-9.123-.111-13.685-.23-26.328-.329-52.653-.288-78.982h62v324h-68c-7.868-15.737-7.868-15.737-10.55-21.836l-.898-2.03c-.63-1.428-1.26-2.857-1.888-4.286-1.73-3.94-3.473-7.874-5.215-11.809l-1.1-2.488c-3.7-8.362-7.455-16.7-11.215-25.036-17.638-39.106-35.078-78.302-51.759-117.827l-.982-2.322c-3.536-8.367-6.983-16.762-10.291-25.221l-.9-2.294c-1.264-3.258-2.405-6.45-3.202-9.851l.166 3.266c1.718 34.426 2.399 68.848 2.869 103.309.069 5.047.143 10.093.22 15.14.527 34.431.845 68.848.745 103.285h-63V744ZM493 744h65v126h93V744h66v324h-66V924h-93v144h-65V744Z"/>
  <path fill="#2C0150" d="M1831 1127h202c-2.767 19.368-5.926 38.678-9 58h-121v82h101v58h-100v95h133v61h-206v-354Z"/>
  <path fill="#2B014F" d="m2008 758 3.176 1.707c5.653 3.131 10.913 6.668 16.074 10.543l1.739 1.287c1.59 1.229 1.59 1.229 4.011 3.463 0 4.11-2.157 5.88-4.75 8.813l-1.492 1.724c-1.047 1.21-2.097 2.416-3.15 3.62-2.086 2.39-4.154 4.795-6.218 7.203a1207.441 1207.441 0 0 1-3.03 3.517c-2.388 2.772-4.73 5.563-6.977 8.451l-2.383 3.047c-.68.895-1.361 1.79-2.063 2.71C2001 816 2001 816 1997 816c-2.234-1.469-2.234-1.469-4.75-3.5-10.347-7.83-23.479-14.523-36.188-17.125l-3.464-.727c-21.674-3.906-42.588-2.42-61.598 9.352-16.933 11.788-25.41 33.425-29 53-2.6 16.686-3.483 33.273-3.391 50.142.016 3.49 0 6.978-.02 10.467-.028 29.05 1.786 63.923 22.952 86.26 15.037 14.874 34.333 18.376 54.682 18.382 11.911-.125 20.578-2.771 31.777-7.251l1-73h-49c-4.811-27.665-4.811-27.665-6.25-36.563-.26-1.557-.26-1.557-.523-3.146l-.493-3.045-.43-2.635c-.332-2.853-.304-5.739-.304-8.611h125v156c-22.21 11.69-22.21 11.69-30.5 14.813l-2.925 1.114c-9.059 3.374-18.105 6.128-27.575 8.073l-2.836.59c-42.756 8.486-89.864 5.768-126.914-18.902-32.67-23.532-53.029-60.386-59.589-99.72-2.197-13.996-2.869-28.01-2.849-42.155l.001-2.199c.02-10.996.453-21.744 2.187-32.614l.59-4.113c6.095-40.157 25.347-78.365 58.41-102.887 19.65-13.806 40.263-22.459 64-26l3.148-.563c32.897-3.736 66.993 2.19 95.852 18.563Z"/>
  <path fill="#7F7F7F" d="M655 1135h202v220h-58c.118 16.767.118 16.767.27 33.533.21 34.038.21 34.038-9.27 44.467-1.855.767-1.855.767-4 1-1.913-.965-1.913-.965-3.914-2.508l-2.278-1.72-2.433-1.897c-1.72-1.304-3.44-2.608-5.16-3.91l-2.641-2.016c-3.833-2.902-7.73-5.71-11.636-8.512l-4.473-3.222-2.231-1.606c-4.5-3.24-8.992-6.49-13.486-9.736a8235.015 8235.015 0 0 0-11.213-8.088 2614.709 2614.709 0 0 1-25.427-18.552c-7.575-5.59-15.203-11.102-22.843-16.602-4.66-3.356-9.317-6.716-13.968-10.084a928.76 928.76 0 0 0-9.871-7.07l-3.051-2.165-2.602-1.824L647 1333v-2l1.87-.8a6733.72 6733.72 0 0 0 17.773-7.627c3.041-1.31 6.084-2.616 9.129-3.917C705.954 1306.07 705.954 1306.07 733 1288a1813.57 1813.57 0 0 1 3.293-2.617c14.8-11.91 27.02-27.023 29.707-46.383 1.87-21.843-3.517-41.919-17.469-59.027-6.047-7.024-12.694-12.976-20.531-17.973l-1.805-1.162c-11.033-6.881-22.994-11.113-35.258-15.213l-2.277-.767c-11.081-3.7-22.217-6.515-33.66-8.858v-1Z"/>
  <path fill="#FEFEFE" d="M938.477 801.07c12.48 9.544 19.778 21.768 23.523 36.93l.832 3.18c4.99 20.107 5.355 40.674 5.353 61.271.002 3.083.02 6.164.04 9.246.09 32.641-1.085 72.98-24.873 98.08-13.506 12.765-28.769 13.782-46.497 13.563-14.58-.48-27.696-5.771-38.043-16.278-18.384-22.19-21.912-55.226-22.015-82.953l-.017-3.7c-.01-2.578-.016-5.157-.02-7.735-.01-3.87-.04-7.741-.072-11.611-.08-18.716 1.098-36.98 5.687-55.188l.645-2.619c1.715-6.717 3.892-13.035 6.98-19.256l1.367-2.848C859.117 805.924 871.02 797.541 887 792c18.065-4.18 36.217-1.356 51.477 9.07Z"/>
  <path fill="#2B004F" d="M587 1355c1.957 1.404 3.87 2.87 5.75 4.375 5.018 3.956 10.136 7.718 15.375 11.375a842.437 842.437 0 0 1 18.563 13.375c5.98 4.426 11.98 8.814 18.044 13.124a2168.97 2168.97 0 0 1 14.018 10.063 28428235681.202 28428235681.202 0 0 0 6.936 5.015 350268.801 350268.801 0 0 1 15.814 11.423l2.25 1.625a2795510.648 2795510.648 0 0 1 31.482 22.737c3.852 2.78 7.702 5.563 11.55 8.349 7.699 5.572 15.399 11.136 23.218 16.539-5.124 12.217-24.527 19.779-36.125 24.625-17.206 6.903-34.548 11.637-52.875 14.375l-3.15.537c-10.899 1.706-21.697 1.801-32.708 1.779-3.175-.003-6.348.02-9.523.045-30.708.096-64.25-4.584-89.619-23.361l-2.824-2.086c-11.823-9.193-21.467-21.733-24.781-36.637-2.531-21.022 1.357-39.596 14.543-56.59A269.885 269.885 0 0 1 517 1391l1.723-2.008c6.384-6.931 14.382-11.955 22.277-16.992l1.89-1.208c8.678-5.439 17.841-9.573 27.298-13.48l3.296-1.39 3.121-1.246 2.786-1.128c3.257-.684 4.699-.078 7.609 1.452Z"/>
  <path fill="#FEFEFE" d="M1005 1186c60.297 0 60.297 0 75 13l2.172 1.855c20.6 18.932 25.691 49.015 27.64 75.648.132 1.752.282 3.503.445 5.252 3.406 38.372 5.023 87.94-19.487 120.179-8.93 10.343-19.462 16.739-32.77 20.066h-53v-236Z"/>
  <path fill="#2F0552" d="M738.539 1538.266c6.226.022 12.453.009 18.679 0 12.87-.018 25.741-.007 38.612.019 13.026.026 26.052.04 39.079.036h2.5l12.63-.003c30.4-.009 60.8.012 91.2.048 30.091.035 60.182.058 90.273.065h2.835l25.641.006a419850.225 419850.225 0 0 1 66.662.017c47.008.016 94.016.054 141.024.093l48.916.041 3.064.003a335384.403 335384.403 0 0 0 150.303.082l60.75.023a1812351.428 1812351.428 0 0 1 126.625.051c86.33.038 172.658.094 258.987.158l2.449.002c40.41.03 80.821.06 121.232.093v12H640c4.018-2.678 8.173-3.28 12.831-4.22 4.464-.92 8.826-1.944 13.182-3.287 23.579-6.823 48.227-5.323 72.526-5.227Z"/>
  <path fill="#2B004F" d="m611.625 1167.5 2.177-.006c24.525.046 48.306 5.781 66.198 23.506 11.18 12.73 15.413 25.915 14.883 42.715-2.01 18.233-11.196 30.264-24.946 41.41-15.678 11.853-34.626 20.426-52.875 27.5l-1.988.788c-2.405.894-4.514 1.61-7.097 1.505-3.093-1.436-5.861-3.31-8.664-5.23l-1.977-1.338c-2.118-1.441-4.228-2.893-6.336-4.35l-2.152-1.486c-9.485-6.573-18.857-13.274-27.848-20.514l-1.786-1.438c-10.037-8.152-19.057-16.42-24.214-28.562l-1.188-2.625c-4.42-12.924-2-26.595 3.731-38.61 8.968-16.498 25.705-24.152 43.008-29.574 10.291-2.893 20.422-3.67 31.074-3.691Z"/>
  <path fill="#2C0150" d="M1381 849h68v220h-68V849Z"/>
  <path fill="#040404" d="M441 1135h131c-3.123 1.561-5.135 2.38-8.422 3.078l-2.583.57-2.745.602c-24.071 5.539-46.253 15.871-65.25 31.75l-2.05 1.605c-13.867 11.255-25.1 29.756-27.95 47.395-1.066 11.453-.68 22.352 4 33 .28.645.56 1.29.847 1.955 5.355 12.023 12.732 20.967 22.153 30.045l1.674 1.636c7.96 7.743 16.483 14.661 25.326 21.364l2.015 1.533c7.88 5.987 15.81 11.886 23.985 17.467-2.522 2.522-4.845 3.253-8.176 4.547l-3.906 1.54c-.69.27-1.378.54-2.088.82-47.674 18.008-47.674 18.008-84.596 51.546L443 1387h-2v-252Z"/>
  <path fill="#2F0452" d="M1419.625 1653.438c9.973 9.256 13.156 22.184 13.705 35.318.305 13.98-3.59 26.479-12.951 37.08-9.605 9.075-22.754 11.697-35.5 11.469-11.93-.937-21.983-5.684-29.977-14.66-9.456-12.629-11.126-27.335-9.902-42.645 2.374-12.903 8.437-23.213 19-31 17.14-11.032 40.25-7.732 55.625 4.438ZM1823.781 1652.02c10.12 9.033 14.55 20.379 15.477 33.68.5 12.768-2.133 24.52-9.258 35.3l-1.75 2.688c-6.246 6.42-13.794 9.715-22.25 12.312l-1.906.594c-12.394 2.404-24.46-.134-35.094-6.594-9.358-6.516-15.215-16.527-17.555-27.633-2.164-16.365-.695-31.867 9.555-45.367 16.177-17.347 43.767-19.457 62.781-4.98Z"/>
  <path fill="gray" d="M1029.988 1647.324c3.842 3.031 6.492 5.939 8.012 10.676.84 7.705.152 14.463-4.324 20.906-3.116 3.86-6.367 6.646-10.676 9.094h-2c7.535 9.653 7.535 9.653 17 17l.402-2.074c1.09-5.333 2.366-10.624 3.598-15.926h16c-1.218 10.186-3.237 19.356-9 28 .297 3.548 1.878 5.224 4.379 7.637l2.04 1.998 2.143 2.053c1.4 1.356 2.797 2.713 4.192 4.074l1.885 1.811C1065 1734 1065 1734 1065 1735c-3.895.175-7.79.281-11.688.375l-3.341.152c-8.04.146-8.04.146-10.856-1.89-1.385-1.66-1.385-1.66-3.115-4.637l-3 1.242c-13.084 5.37-25.558 9.718-39.68 4.86-5.986-2.842-11.03-7.545-13.691-13.668-1.58-6.11-1.944-12.98.324-18.938 3.502-5.84 8.578-10.505 14.047-14.496h2v-2l-1.805-.73c-2.632-1.523-3.684-3.035-5.32-5.582l-1.508-2.301c-3.34-5.83-4.169-10.74-3.367-17.387 2.276-7.727 7.573-12.13 14.438-15.875 9.703-3.184 23-2.495 31.55 3.2Z"/>
  <path fill="#818181" d="M1380 744h69v69h-69v-69Z"/>
  <path fill="#FBFBFC" d="M1346 1206h2l.623 2.813c2.092 9.437 4.19 18.873 6.291 28.309l2.04 9.174c5.42 24.433 10.97 48.789 18.468 72.68l.787 2.51c.55 1.747 1.103 3.494 1.66 5.24l.834 2.672.755 2.389C1380 1334 1380 1334 1380 1338h-68c.65-3.252 1.318-6.289 2.234-9.45l.733-2.54.783-2.697 1.637-5.692.825-2.871c6.437-22.47 12.188-45.12 17.946-67.77.918-3.61 1.839-7.22 2.76-10.83.718-2.81 1.433-5.621 2.147-8.433.339-1.332.678-2.664 1.019-3.996.473-1.852.943-3.705 1.413-5.558l.809-3.178c.693-2.982 1.224-5.96 1.694-8.985Z"/>
  <path fill="#2C014F" d="M1860 1645c18 0 18 0 22.398 3.777 1.55 2.468 1.55 2.468 2.977 5.16 1.134 1.86 2.27 3.717 3.406 5.575l1.637 2.825c2.262 3.808 4.844 7.342 7.457 10.913 5.08 7.134 9.954 14.402 14.813 21.688l2.145 3.217c5.033 7.576 5.033 7.576 6.167 9.845l1-63h16v90h-17c-6.015-6.155-6.015-6.155-7.695-9.121-1.93-3.277-4.008-6.39-6.195-9.5a456.905 456.905 0 0 1-4.118-6 684.767 684.767 0 0 0-6.484-9.352l-1.827-2.593a2203.031 2203.031 0 0 0-3.471-4.905c-4.97-7.054-9.527-14.245-14.21-21.529l-1 63h-16v-90Z"/>
  <path fill="#2D0250" d="M810.598 1644.902c1.488.007 2.976.019 4.465.035l2.298.014c1.88.012 3.76.03 5.639.049l1.43 3.667c2.23 5.716 4.462 11.43 6.695 17.146.405 1.035.81 2.07 1.226 3.138 6.025 15.415 12.11 30.803 18.32 46.144 2.654 6.577 5.193 13.14 7.329 19.905h-18c-3.02-7.67-5.621-15.07-8-23l-34 1-6 15-3 7h-18c5.22-14.094 10.701-28.081 16.202-42.067l2.2-5.604c9.271-23.636 9.271-23.636 13.727-34.52l.858-2.106c2.347-5.685 2.347-5.685 6.61-5.8Z"/>
  <path fill="#2E0451" d="M1531 1645h17l.028 5.333c.036 5.856.09 11.71.156 17.566.04 3.546.071 7.09.087 10.636.018 4.09.068 8.177.12 12.266l.003 3.805c.13 7.901.479 17.243 6.392 23.19 5.057 3.782 11.034 4.623 17.214 4.204 5.521-1.162 9.721-2.596 13.563-6.813 3.633-8.056 3.772-15.223 3.851-23.996.019-1.335.038-2.67.059-4.005.05-3.494.09-6.987.128-10.48.04-3.574.091-7.147.141-10.72.097-6.995.18-13.99.258-20.986h17c.114 8.12.205 16.24.26 24.36.025 3.772.06 7.544.117 11.316.055 3.65.085 7.3.097 10.95.01 1.383.027 2.765.055 4.147.216 11.442-1.605 21.609-8.841 30.79-3.491 3.573-7.017 5.723-11.688 7.437l-2.39.902c-10.801 3.509-24.154 3.934-34.61-.902-8.958-4.69-14.736-11.381-18-21-1.236-7.288-1.128-14.53-1.098-21.906l.005-4.002c.003-3.485.013-6.97.024-10.455.01-3.567.015-7.133.02-10.7.01-6.979.028-13.958.049-20.937ZM680 1645h16l.044 5.166c.052 5.667.117 11.335.192 17.003.044 3.432.084 6.864.11 10.296.032 3.957.086 7.914.142 11.87l.02 3.689c.14 8.262.683 16.638 5.804 23.476 4.791 4.456 9.815 4.81 16.188 4.875l3.844.086c5.026-.634 8.092-2.558 11.3-6.461l1.168-2 1.208-2c1.936-3.95 2.121-7.596 2.185-11.962l.06-3.64.051-3.914.063-4.018c.055-3.518.105-7.036.153-10.554.05-3.593.106-7.186.161-10.78.108-7.043.209-14.088.307-21.132h17c.046 7.207.082 14.415.104 21.622.01 3.348.025 6.696.047 10.044.024 3.865.036 7.73.044 11.596l.032 3.575c.001 13.126-.865 24.597-9.54 34.913-10.745 8.996-21.768 11.327-35.6 10.461-8.638-.874-16.991-3.884-23.087-10.211-1.921-2.552-3.522-5.171-5-8l-1.07-1.867c-2.041-4.682-2.053-9.653-2.044-14.69v-3.88l.016-4.149.005-4.279c.003-3.738.013-7.477.024-11.215.01-3.821.015-7.642.02-11.463.01-7.486.028-14.971.049-22.457Z"/>
  <path fill="#2F0553" d="m1993 1642.688 2.522.008c8.875.148 17.462 1.296 25.478 5.304v14l-4.375-.875-2.781-.547a184.514 184.514 0 0 1-5.313-1.156c-8.927-2.029-18.384-3.275-26.531 1.578-2.934 2.556-3 4.001-3.5 7.938-.154 3.234.528 4.097 2.625 6.687 3.175 2.623 5.401 3.458 9.375 4.438l3.73.98 3.77.957c18.78 4.984 18.78 4.984 24.5 13.188 3.544 6.645 3.496 14.677 2.074 22.007-2.327 6.14-7.475 11.947-13.199 15.118-14.168 6.106-30.827 6.901-45.375 1.687l-6-3v-14l7.422 2.246c6.098 1.783 11.602 1.972 17.953 2.004l3.117.063c6.601.034 10.98-.561 16.32-4.727 2.352-3.14 2.47-6.77 2.188-10.586-3.176-5.496-8.59-6.438-14.453-8.11-3.418-.858-6.843-1.568-10.297-2.265-7.687-1.727-13.505-4.936-18.25-11.313-3.916-6.485-3.58-12.908-3-20.312 2.237-8.545 7.572-13.305 14.84-17.887 5.737-2.957 10.83-3.468 17.16-3.426Z"/>
  <path fill="#2F0552" d="M1323 1648v14l-4.438-.875-2.789-.547c-1.67-.348-3.334-.725-4.984-1.156-7.616-1.982-15.928-2.82-23.414-.11-3.937 2.646-3.937 2.646-5.844 6.774-.056 4.156.038 6.294 2.469 9.789 5.29 3.748 10.642 5.06 16.87 6.552 10.368 2.484 18.47 4.915 24.88 14.073 3.236 6.472 3.125 14.181 1.188 21.063-2.388 6.38-6.68 11.493-12.688 14.75-1.401.6-2.82 1.161-4.25 1.687l-2.355.902c-13.383 4.394-29.552 3.163-42.516-2.058-2.129-1.844-2.129-1.844-2.617-5.2l.176-3.832.136-3.855.176-2.957 2.047.621 2.703.816 2.672.81c6.039 1.765 11.539 2.041 17.828 2.128l3.066.113c6.78.08 11.52-.895 16.684-5.488 1.15-2.3 1.232-3.815 1.313-6.375l.113-2.336c-.606-3.259-1.803-4.294-4.426-6.289-3.264-1.206-3.264-1.206-6.938-2a1777.9 1777.9 0 0 1-4.03-1.008l-2.044-.5c-10.449-2.582-19.11-5.194-25.988-13.867-3.851-6.812-3.17-16.31-1.184-23.637 3.155-7.177 8.453-11.644 15.391-15.082 13.542-4.983 29.833-2.09 42.793 3.094ZM654 1648v14l-4.438-.875-2.789-.547c-1.67-.348-3.334-.725-4.984-1.156-7.93-2.064-16.956-3.195-24.539.453-3.272 1.75-3.272 1.75-4.25 4.125-.35 2.267-.35 2.267-.438 4.813l-.183 2.582c.749 3.14 2.101 4.59 4.662 6.518 3.806 2.112 7.973 2.762 12.209 3.587 10.524 2.3 19.442 4.553 26.406 13.34 4.206 6.76 3.872 14.567 2.344 22.16-2.473 7.797-7.837 12.436-14.875 16.25-13.412 6.108-30.295 5.195-44.125.75-2.871-1.156-2.871-1.156-5-3-.488-3.355-.488-3.355-.313-7.188l.137-3.855L594 1717l2.266.621 2.984.816 2.953.81L605 1720l1.88.532c4.067.898 8.222.737 12.37.78l2.777.088c5.972.056 11.173-.558 15.973-4.4 2.482-4.157 2.227-7.228 2-12-.631-3.066-.631-3.066-2.717-3.868l-2.224-.675-2.47-.751c-3.31-.903-6.637-1.69-9.985-2.442-9.766-2.217-19.066-4.463-25.729-12.514-3.572-6.595-2.89-15.528-1.875-22.75 2.145-7.152 7.335-12.458 13.828-15.996 13.763-6.253 31.574-3.443 45.172 1.996Z"/>
  <path fill="#070707" d="M441 1487c2.919 2.919 5.617 5.638 8.25 8.75 29.825 34.103 75.63 47.444 119.39 52.263l2.747.311 2.413.253c2.2.423 2.2.423 6.2 2.423H441v-64Z"/>
  <path fill="#2E0351" d="M455 1645h18c3.29 8.068 6.454 16.125 9.313 24.357 2.94 8.431 6.006 16.816 9.062 25.206l.84 2.304c1.593 4.378 3.189 8.756 4.785 13.133 4.797-11.04 8.897-22.336 13.063-33.625 1.065-2.884 2.131-5.768 3.2-8.651l1.973-5.343c2.158-5.834 4.434-11.613 6.764-17.381h18a4398.508 4398.508 0 0 1-11.037 29.215c-1.77 4.638-3.525 9.28-5.252 13.933-5.857 15.766-12.271 31.317-18.711 46.852h-15c-3.621-7.582-6.68-15.277-9.641-23.135-2.83-7.5-5.734-14.969-8.671-22.428l-1.385-3.52a6660.234 6660.234 0 0 0-6.661-16.866c-1.03-2.598-2.058-5.198-3.086-7.798-.732-1.849-1.468-3.697-2.204-5.544l-1.332-3.373-1.185-2.983C455 1647 455 1647 455 1645Z"/>
  <path fill="#FDFCFD" d="M1404 1661c7.383 5.743 10.784 12.845 12 22 .871 10.884-.726 19.685-5.75 29.375-3.787 4.419-8.336 8.681-14.25 9.625-16.596 1.166-16.596 1.166-23-4-5.41-4.89-9.349-11.343-10.368-18.63-.131-2.78-.13-5.525-.07-8.307l-.021-2.803c.092-10.065 2.12-18.026 9.229-25.342 9.42-8.1 21.687-8.043 32.23-1.918ZM1810 1661c5.882 5.036 9.82 11.31 11 19 .849 12.496 1.15 24.501-6.688 34.938-5.594 5.774-11.527 7.298-19.437 7.5-7.967-.266-13.255-2.124-19.234-7.497-7.572-8.96-8.478-20.64-7.863-31.866.845-7.892 4.26-15.48 10.28-20.708 10.13-7.133 21.056-7.335 31.942-1.367Z"/>
  <path fill="#300753" d="M1622 1645h76v14h-29v76h-17v-76h-30v-14Z"/>
  <path fill="#300653" d="M1147 1645h75v14h-29v76h-17v-76h-29v-14Z"/>
  <path fill="#2D0250" d="M874 1645h17v76h42v14h-59v-90Z"/>
  <path fill="#2B004F" d="M1454 1645h16v76h43v14h-59v-90Z"/>
  <path fill="#310754" d="M1114 1645h17v90h-17v-90Z"/>
  <path fill="#2B004F" d="M1714 1645h16v90h-16v-90ZM556 1645h16v90h-16v-90Z"/>
  <path fill="#0E0E0E" d="M460.207 844.613c4.963 2.455 7.038 6.378 8.793 11.387.435 3.198.385 6.281.25 9.5L469 874h-33l-.188-8.563-.082-2.654c-.057-5.374.71-9.034 3.27-13.783 6.143-5.693 13.077-6.646 21.207-4.387Z"/>
  <path fill="#060606" d="M469 745c.719 3.544.925 6.482 0 10-3.299 3.293-7.042 5.575-11 8l-2 2 13 1v8h-33l-.188-9.688-.082-3.026c-.046-4.89-.034-8.381 3.27-12.286 3.509-2.34 4.87-2.413 9-2 2.813 1.188 2.813 1.188 5 3 .637 2.613.637 2.613 1 5l2.773-2.188 3.602-2.812 1.828-1.445C466.773 745 466.773 745 469 745Z"/>
  <path fill="#090909" d="M436 935h33c0 9 0 9-1.871 11.016l-2.567 1.234-2.738 1.398L459 950a491.696 491.696 0 0 0-5.125 2.875L450 955l19 1v8h-33v-10c2.613-2.395 4.247-3.574 7.313-5.063l2.091-1.138c2.813-1.508 5.566-2.79 8.596-3.799l-18-1v-8Z"/>
  <path fill="#080808" d="M469 984v9l-7 3-1 12 3.438.938C468 1010 468 1010 469 1011c.141 2.67.042 5.324 0 8-4.043-.665-7.57-1.92-11.36-3.469l-3.628-1.48c-.617-.255-1.234-.51-1.87-.771-1.898-.782-3.799-1.557-5.7-2.33-9.305-3.813-9.305-3.813-10.442-4.95a74.456 74.456 0 0 1-.063-4.563l.028-2.503L436 997l1.957-.813 2.856-1.187 3.261-1.355c2.967-1.239 5.926-2.496 8.883-3.758l2.585-1.1c1.712-.729 3.423-1.46 5.133-2.195l2.395-1.018 2.15-.919C467 984 467 984 469 984Z"/>
  <path fill="#070707" d="M436 1034a118.71 118.71 0 0 1 11.984 4.566l3.332 1.471 3.434 1.525 3.48 1.538c8.393 3.712 8.393 3.712 10.77 4.9v8a6956.63 6956.63 0 0 1-13.135 5.554c-1.49.63-2.98 1.26-4.47 1.892-2.138.907-4.278 1.809-6.418 2.71l-2.024.862C438.228 1069 438.228 1069 436 1069v-9l19-8c-6.27-3.179-12.556-6.194-19-9v-9Z"/>
  <path fill="#0E0E0E" d="M463 797h6v24h-33v-23h5v14h8v-11h6v11h8v-15Z"/>
  <path fill="#FBFBFB" d="M1005 1698c3.363 1.457 5.545 3.311 8.11 5.914l2.285 2.305 2.355 2.406 2.402 2.43c1.954 1.977 3.903 3.959 5.848 5.945-5.045 5.313-9.904 6.236-17.063 6.5-7.561-.201-7.561-.201-10.75-2.438-2.856-3.998-3.698-7.171-3.187-12.062 2.35-4.888 5.791-7.748 10-11Z"/>
  <path fill="#F7F5F8" d="M814 1667c2 1 2 1 3.113 4.176.406 1.377.805 2.756 1.2 4.137a151.637 151.637 0 0 0 6.769 18.43C826 1696 826 1696 826 1698h-23c1.27-3.667 2.54-7.334 3.813-11l1.08-3.121c1.963-5.656 3.975-11.284 6.107-16.879Z"/>
  <path fill="#FBFBFB" d="M1015 1656c3.438 2 3.438 2 6 5 .942 4.422 1.016 6.433-1.441 10.223-2.886 3.434-5.413 5.961-9.559 7.777a461.132 461.132 0 0 1-3.375-3.25l-1.898-1.828c-2.551-2.84-3.603-5.09-4.164-8.86.586-4.103 2.312-5.458 5.437-8.062 3.15-1.575 5.52-1.348 9-1Z"/>
  <path fill="#FAFAFA" d="M458 853c3.188 1.5 3.188 1.5 5 4v8h-21c0-8 0-8 1.813-10.5 4.738-2.23 9.043-2.24 14.187-1.5Z"/>
  <path fill="#F9F9F9" d="M444 756c4.556.556 4.556.556 6 2 .141 2.67.042 5.324 0 8h-8c-.195-6.055-.195-6.055 0-8l2-2Z"/>
  <path fill="#E1E1E1" d="M455 999v6c-3.47-.458-6.674-.891-10-2v-2c3.62-1.316 6.096-2 10-2Z"/>
</svg>
